<svg width="47" height="46" viewBox="0 0 47 46" fill="none" xmlns="http://www.w3.org/2000/svg">
<path d="M23.4203 45.2638C36.355 45.2638 46.8406 35.1312 46.8406 22.6319C46.8406 10.1327 36.355 0 23.4203 0C10.4856 0 0 10.1327 0 22.6319C0 35.1312 10.4856 45.2638 23.4203 45.2638Z" fill="#12305C"/>
<path d="M18.918 23.73L19.2941 24.6955H23.5454L23.1409 23.73H18.918Z" fill="#F9F9F9"/>
<path d="M29.8476 8.88062H21.875L22.3604 10.0689C22.777 9.93599 24.2979 9.87736 24.9209 9.87736H29.8597C34.1757 9.87736 36.5177 13.4969 36.5177 16.706C36.5177 19.9542 34.2202 23.734 29.8193 23.734H27.6633L28.0719 24.6995H29.52C34.4993 24.6995 38.2773 21.9203 38.2773 16.706C38.2733 12.0897 34.4589 8.88062 29.8476 8.88062Z" fill="#F9F9F9"/>
<path d="M19.3546 11.1438L14.6341 23.7301L14.2903 24.6956L12.4296 29.523C12.2233 30.1562 12.0858 30.6565 12.0858 31.0552C12.0858 32.2552 13.0849 32.5875 15.3582 32.5875V33.42H7.84668V32.5875C9.73972 32.5875 10.4314 32.1536 11.4993 29.1243L18.6993 9.64674L20.5923 8.88062L29.1029 30.1562C29.7218 31.9855 30.7209 32.5875 32.5492 32.5875V33.42H23.8V32.5875C26.0732 32.5875 27.1088 32.3217 27.1088 31.2897C27.1088 31.0239 27.04 30.6917 26.9025 30.2891L19.3546 11.1438Z" fill="#F9F9F9"/>
</svg>
